<svg width="45" height="45" fill="none" xmlns="http://www.w3.org/2000/svg"><path d="M42 43.5V15a.75.75 0 0 0-.568-.728L27 10.664V6.75a.75.75 0 0 0-.557-.725l-22.5-6A.75.75 0 0 0 3 .75V43.5H0V45h45v-1.5h-3ZM4.5 1.725l21 5.6V43.5h-3.75v-8.25a.75.75 0 0 0-.75-.75H9a.75.75 0 0 0-.75.75v8.25H4.5V1.725ZM9.75 36h4.5v7.5h-4.5V36Zm6 7.5V36h4.5v7.5h-4.5Zm15.75 0v-6H36v6h-4.5Zm6 0v-6.75a.75.75 0 0 0-.75-.75h-6a.75.75 0 0 0-.75.75v6.75h-3V12.21l13.5 3.376V43.5h-3Z" fill="#fff"/><path d="M9.75 31.5h3a.75.75 0 0 0 .75-.75v-3a.75.75 0 0 0-.75-.75h-3a.75.75 0 0 0-.75.75v3c0 .415.336.75.75.75Zm.75-3H12V30h-1.5v-1.5Zm6.75 3h3a.75.75 0 0 0 .75-.75v-3a.75.75 0 0 0-.75-.75h-3a.75.75 0 0 0-.75.75v3c0 .415.336.75.75.75Zm.75-3h1.5V30H18v-1.5Zm14.25 0h-3a.75.75 0 0 0-.75.75v3c0 .415.336.75.75.75h3a.75.75 0 0 0 .75-.75v-3a.75.75 0 0 0-.75-.75Zm-.75 3H30V30h1.5v1.5Zm6.75-3h-3a.75.75 0 0 0-.75.75v3c0 .415.336.75.75.75h3a.75.75 0 0 0 .75-.75v-3a.75.75 0 0 0-.75-.75Zm-.75 3H36V30h1.5v1.5Zm-5.25-9h-3a.75.75 0 0 0-.75.75v3c0 .415.336.75.75.75h3a.75.75 0 0 0 .75-.75v-3a.75.75 0 0 0-.75-.75Zm-.75 3H30V24h1.5v1.5Zm6.75-3h-3a.75.75 0 0 0-.75.75v3c0 .415.336.75.75.75h3a.75.75 0 0 0 .75-.75v-3a.75.75 0 0 0-.75-.75Zm-.75 3H36V24h1.5v1.5Zm-5.25-9h-3a.75.75 0 0 0-.75.75v3c0 .415.336.75.75.75h3a.75.75 0 0 0 .75-.75v-3a.75.75 0 0 0-.75-.75Zm-.75 3H30V18h1.5v1.5Zm6.75-3h-3a.75.75 0 0 0-.75.75v3c0 .415.336.75.75.75h3a.75.75 0 0 0 .75-.75v-3a.75.75 0 0 0-.75-.75Zm-.75 3H36V18h1.5v1.5Zm-27.75 6h3a.75.75 0 0 0 .75-.75v-3a.75.75 0 0 0-.75-.75h-3a.75.75 0 0 0-.75.75v3c0 .415.336.75.75.75Zm.75-3H12V24h-1.5v-1.5Zm6.75 3h3a.75.75 0 0 0 .75-.75v-3a.75.75 0 0 0-.75-.75h-3a.75.75 0 0 0-.75.75v3c0 .415.336.75.75.75Zm.75-3h1.5V24H18v-1.5Zm-8.25-3h3a.75.75 0 0 0 .75-.75v-3a.75.75 0 0 0-.75-.75h-3a.75.75 0 0 0-.75.75v3c0 .415.336.75.75.75Zm.75-3H12V18h-1.5v-1.5Zm6.75 3h3a.75.75 0 0 0 .75-.75v-3a.75.75 0 0 0-.75-.75h-3a.75.75 0 0 0-.75.75v3c0 .415.336.75.75.75Zm.75-3h1.5V18H18v-1.5Zm-8.25-3h3a.75.75 0 0 0 .75-.75v-3a.75.75 0 0 0-.75-.75h-3a.75.75 0 0 0-.75.75v3c0 .415.336.75.75.75Zm.75-3H12V12h-1.5v-1.5Zm6.75 3h3a.75.75 0 0 0 .75-.75v-3a.75.75 0 0 0-.75-.75h-3a.75.75 0 0 0-.75.75v3c0 .415.336.75.75.75Zm.75-3h1.5V12H18v-1.5Z" fill="#fff"/></svg>