<svg width="46" height="36" fill="none" xmlns="http://www.w3.org/2000/svg"><path d="M43.675 31.335h-4.36a.649.649 0 1 1 0-1.297h4.36a.435.435 0 0 0 .434-.435v-2.05a5.305 5.305 0 0 0-5.3-5.3H1.3v6.598a1.188 1.188 0 0 0 1.186 1.187h2.757a.648.648 0 1 1 0 1.297H2.485A2.487 2.487 0 0 1 .001 28.85v-7.245a.649.649 0 0 1 .649-.649h38.16a6.604 6.604 0 0 1 6.596 6.597v2.05a1.734 1.734 0 0 1-1.731 1.732Z" fill="#fff"/><path d="M31.35 31.335H13.402a.649.649 0 1 1 0-1.297H31.35a.648.648 0 1 1 0 1.297ZM.65 22.257a.66.66 0 0 1-.373-.117.649.649 0 0 1-.262-.672 14.459 14.459 0 0 1 5.428-8.044 5.087 5.087 0 0 1 2.906-.898h16.38a6.411 6.411 0 0 1 4.697 2.056l6.078 6.585a.65.65 0 1 1-.952.88l-6.075-6.583a5.112 5.112 0 0 0-3.745-1.64H8.35a3.795 3.795 0 0 0-2.169.672c-3.837 2.648-4.887 7.207-4.896 7.253a.649.649 0 0 1-.634.508Z" fill="#fff"/><path d="M20.758 22.257a.649.649 0 0 1-.64-.55l-1.297-8.432a.65.65 0 1 1 1.281-.195l1.297 8.432a.649.649 0 0 1-.641.745Zm-12.324 0a.649.649 0 0 1-.62-.84l2.594-8.432a.65.65 0 0 1 1.034-.309.649.649 0 0 1 .206.69L9.054 21.8a.649.649 0 0 1-.62.458Zm26.905 13.255a4.635 4.635 0 1 1-.002-9.27 4.635 4.635 0 0 1 .002 9.27Zm0-7.974a3.339 3.339 0 1 0-.001 6.68 3.339 3.339 0 0 0 0-6.681v.001Z" fill="#fff"/><path d="M35.339 33.054a2.18 2.18 0 1 1-.001-4.359 2.18 2.18 0 0 1 0 4.36Zm0-3.06a.882.882 0 1 0-.001 1.764.882.882 0 0 0 0-1.764Zm-26.016 3.06a2.18 2.18 0 1 1 0-4.358 2.18 2.18 0 0 1 0 4.358Zm0-3.06a.883.883 0 1 0 0 1.765.883.883 0 0 0 0-1.765Z" fill="#fff"/><path d="M9.323 35.608a4.735 4.735 0 1 1 0-9.47 4.735 4.735 0 0 1 0 9.47Zm0-8.169a3.438 3.438 0 1 0 0 6.877 3.438 3.438 0 0 0 0-6.877ZM25.947 25.5H24.65a.648.648 0 1 1 0-1.297h1.297a.648.648 0 1 1 0 1.297Zm-7.459 0H17.19a.648.648 0 1 1 0-1.297h1.298a.648.648 0 1 1 0 1.297Zm2.054-11.675h-8.027a.648.648 0 0 1-.649-.649v-2.595a.65.65 0 0 1 .649-.648h8.027a.65.65 0 0 1 .649.648v2.595a.649.649 0 0 1-.649.649Zm-7.378-1.298h6.73V11.23h-6.73v1.297Z" fill="#fff"/><path d="M26.366 11.23H6.69a.649.649 0 1 1 0-1.297h19.675a.649.649 0 1 1 0 1.297Z" fill="#fff"/><path d="M24.78 11.227H13.025a.649.649 0 0 1 0-1.297H24.13V1.68a.382.382 0 0 0-.381-.382h-9.695a.382.382 0 0 0-.382.382v2.374a.648.648 0 1 1-1.297 0V1.679A1.68 1.68 0 0 1 14.055 0h9.693a1.68 1.68 0 0 1 1.68 1.679v8.9a.649.649 0 0 1-.648.648Z" fill="#fff"/><path d="M18.901 11.23H8.688a.648.648 0 0 1-.648-.649v-5.5a1.682 1.682 0 0 1 1.68-1.68h8.15a1.682 1.682 0 0 1 1.68 1.68v5.5a.649.649 0 0 1-.649.649ZM9.337 9.933h8.916V5.08a.384.384 0 0 0-.383-.382H9.72a.383.383 0 0 0-.383.382v4.852Z" fill="#fff"/></svg>